<svg width="101" height="133" viewBox="0 0 101 133" fill="none" xmlns="http://www.w3.org/2000/svg">
<path d="M26.5495 0H40.7366V5.51363H32.4819V11.0273H40.7366V16.5409H26.5495V0ZM43.5708 0H57.7634V4.79758H49.5086V5.75402H57.7634V16.7813H43.5708V11.7484H51.8255V10.7869H43.5708V0ZM60.603 0H74.7846V4.79758H66.5299V5.75402H74.7846V16.7813H60.603V11.7484H68.8577V10.7869H60.603V0Z" fill="#20D4B4"/>
<path fill-rule="evenodd" clip-rule="evenodd" d="M50.6171 132.328L12.0393 121.575L0.667053 24.7812H100.667L89.3004 121.564L50.6171 132.328ZM23.1504 68.5966L24.2115 80.4651H65.1948L63.8226 95.8584L50.6337 99.439H50.6226L37.4559 95.8696L36.6115 86.4049H24.7393L26.3948 105.044L50.6171 111.793L74.8782 105.044L77.8337 71.7812L78.1226 68.5966L80.2559 44.5639H21.0226L22.1004 56.438H67.3004L66.2226 68.5966H23.1504Z" fill="#20D4B4"/>
</svg>
