<svg width="83" height="114" viewBox="0 0 83 114" fill="none" xmlns="http://www.w3.org/2000/svg">
<path fill-rule="evenodd" clip-rule="evenodd" d="M23.2834 0C10.7486 0 0.667379 9.75175 0.667379 21.698C0.667379 28.9607 4.3966 35.4113 10.1287 39.349C7.17445 41.4014 4.77981 44.0671 3.13678 47.1323C1.49374 50.1975 0.648011 53.5771 0.667379 57C0.667379 64.2675 4.3966 70.7132 10.1287 74.651C7.17445 76.7034 4.77981 79.3691 3.13678 82.4343C1.49374 85.4995 0.648011 88.8791 0.667379 92.302C0.667379 104.248 10.7486 114 23.2834 114C35.8132 114 45.8995 104.248 45.8995 92.302V73.9575C49.8609 77.0203 54.8544 78.6993 60.0121 78.7028C72.547 78.698 82.6282 68.9463 82.6282 57C82.6488 53.5769 81.8036 50.1969 80.1604 47.1315C78.5173 44.0661 76.122 41.4006 73.1668 39.349C76.1211 37.2966 78.5158 34.6309 80.1588 31.5657C81.8018 28.5005 82.6475 25.1209 82.6282 21.698C82.6282 9.75175 72.547 0 60.0121 0H23.2834V0ZM9.16569 21.698C9.16569 14.1407 15.5279 8.08925 23.2834 8.08925H37.3961V35.3068H23.2834C15.5279 35.3068 9.16569 29.2505 9.16569 21.698V21.698ZM60.0121 35.302H45.8995V8.0845H60.0121C67.7728 8.0845 74.1299 14.1407 74.1299 21.698C74.1299 29.2505 67.7728 35.302 60.0121 35.302ZM9.17081 57C9.17081 49.4475 15.533 43.3913 23.2886 43.3913H37.4012V70.6087H23.2834C15.5228 70.6087 9.16569 64.5525 9.16569 57H9.17081ZM45.8995 57C45.8995 49.4475 52.2617 43.3913 60.0172 43.3913C67.7779 43.3913 74.135 49.4428 74.135 57C74.135 64.5525 67.7779 70.6087 60.0172 70.6087C52.2617 70.6087 45.9046 64.5572 45.9046 57H45.8995ZM9.17081 92.302C9.17081 84.7495 15.533 78.698 23.2886 78.698H37.4012V92.302C37.4012 99.8592 31.0492 105.911 23.2886 105.911C15.533 105.911 9.17081 99.8592 9.17081 92.302Z" fill="#20D4B4"/>
</svg>
