<svg width="100" height="108" viewBox="0 0 100 108" fill="none" xmlns="http://www.w3.org/2000/svg">
<path fill-rule="evenodd" clip-rule="evenodd" d="M0 0H100V107.018H0V0ZM76.4458 89.7164C71.8083 89.7164 69.1875 87.1301 67.175 83.6075L59.5375 88.3564C62.2958 94.1888 67.9333 98.639 76.6625 98.639C85.5875 98.639 92.2333 93.6805 92.2333 84.6241C92.2333 76.2277 87.725 72.4955 79.7417 68.8257L77.3917 67.751C73.3583 65.8782 71.6125 64.6609 71.6125 61.6421C71.6125 59.203 73.3625 57.3347 76.1125 57.3347C78.8083 57.3347 80.5458 58.552 82.1583 61.6421L89.475 56.6167C86.3792 50.7887 82.0875 48.5637 76.1125 48.5637C67.7208 48.5637 62.35 54.3069 62.35 61.8517C62.35 70.0341 66.85 73.909 73.6333 76.9991L75.9833 78.0782C80.2708 80.0848 82.825 81.3066 82.825 84.7534C82.825 87.634 80.3375 89.7164 76.4458 89.7164ZM40.0292 89.6495C36.8 89.6495 35.4542 87.2862 33.9792 84.477L26.3292 89.4355C28.5458 94.4564 32.9042 98.6211 40.425 98.6211C48.7542 98.6211 54.4583 93.8811 54.4583 83.4692V49.1344H45.0625V83.3354C45.0625 88.3608 43.1125 89.6495 40.025 89.6495H40.0292Z" fill="#20D4B4"/>
</svg>
